<!--?xml version="1.0" encoding="utf-8"?-->
<!-- Generator: Adobe Illustrator 15.1.0, SVG Export Plug-In . SVG Version: 6.00 Build 0)  -->

<svg version="1.1" id="_x32_" xmlns="http://www.w3.org/2000/svg" xmlns:xlink="http://www.w3.org/1999/xlink" x="0px" y="0px" width="512px" height="512px" viewBox="0 0 512 512" style="width: 512px; height: 512px; opacity: 1;" xml:space="preserve">
<style type="text/css">

	.st0{fill:#4B4B4B;}

</style>
<g>
	<path class="st0" d="M446.844,256c26.203-24.688,48.281-53.688,65.156-85.859l-24.859-13.031
		c-15.844,30.25-36.781,57.422-61.641,80.422c-9.891-7.844-20.266-15.109-31.063-21.781
		c-49.594-30.656-108.156-48.344-170.703-48.344c-40.281,0-78.922,7.328-114.547,20.75c-35.641,13.406-68.297,32.891-96.719,57.172
		L0,256l12.469,10.672c28.422,24.281,61.078,43.766,96.719,57.188c35.625,13.391,74.266,20.75,114.547,20.734
		c62.547,0.016,121.109-17.703,170.703-48.344c10.797-6.672,21.172-13.953,31.063-21.781c24.859,22.984,45.797,50.172,61.641,80.422
		L512,341.859C495.125,309.688,473.047,280.688,446.844,256z M379.703,272.375c-45.344,28-98.719,44.156-155.969,44.156
		c-36.875,0-72.125-6.703-104.672-18.953C91.922,287.375,66.656,273.281,43.953,256c22.703-17.281,47.969-31.359,75.109-41.578
		c32.547-12.25,67.797-18.953,104.672-18.953c57.25,0,110.625,16.156,155.969,44.156c8.203,5.078,16.156,10.547,23.813,16.375
		C395.859,261.828,387.906,267.297,379.703,272.375z" style="fill: rgb(0, 0, 0);"></path>
	<path class="st0" d="M127.422,240.688c-8.453,0-15.313,6.859-15.313,15.313s6.859,15.313,15.313,15.313s15.313-6.859,15.313-15.313
		S135.875,240.688,127.422,240.688z" style="fill: rgb(0, 0, 0);"></path>
</g>
</svg>
