<svg xmlns="http://www.w3.org/2000/svg" width="15" height="25" viewBox="0 0 124.827 200">
    <path d="M5125.805,1353.378a58.437,58.437,0,1,0,58.437,58.438A58.437,58.437,0,0,0,5125.805,1353.378Zm-14.388,28.8h27.325v63.055h-18.7v-44.359h-8.63Zm-16.478,88.449a77.121,77.121,0,0,1-5.807,17.825c-12.863,26.118-29.066,34.72-29.718,35.118l19.719-1.79-5.665,17.123,22.544-6.434-6.6,20.91c21.789-13.6,33.041-28.786,43.187-46.881a96.282,96.282,0,0,0,10.892-30.65A66.214,66.214,0,0,1,5094.939,1470.626Z"
    transform="translate(-5059.415 -1353.378)" fill="#FFD700"/>
</svg>