<svg xmlns="http://www.w3.org/2000/svg" width="15" height="25" viewBox="0 0 124.814 200">
    <path d="M2137.156,2764.673a58.435,58.435,0,1,0,58.426,58.427A58.436,58.436,0,0,0,2137.156,2764.673Zm-20.113,28.309h41.8V2856.2h-41.083v-13.353h27.729v-11.484h-28.16v-13.354h28.17v-11.676h-28.459Zm-10.75,88.945a77.335,77.335,0,0,1-5.806,17.824c-12.862,26.114-29.065,34.719-29.72,35.115l19.72-1.79-5.667,17.122,22.546-6.434-6.6,20.909c21.788-13.6,33.039-28.785,43.185-46.876a96.329,96.329,0,0,0,10.894-30.651A66.232,66.232,0,0,1,2106.293,2881.927Z" transform="translate(-2070.768 -2764.673)" fill="#B87333"/>
</svg>