<svg xmlns="http://www.w3.org/2000/svg" width="15" height="25" viewBox="0 0 124.821 200">
    <path d="M642.8,2764.668a58.437,58.437,0,1,0,58.437,58.436A58.437,58.437,0,0,0,642.8,2764.668Zm-20.121,28.312h41.8v38.77h-28.1v10.813h28.231v13.353H623.026V2818.4h28.111v-12.064H622.682Zm-10.744,88.941a77.137,77.137,0,0,1-5.806,17.824c-12.862,26.116-29.062,34.719-29.714,35.116l19.715-1.789-5.665,17.121,22.546-6.434-6.6,20.908c21.787-13.6,33.039-28.787,43.185-46.878a96.3,96.3,0,0,0,10.891-30.651,66.169,66.169,0,0,1-48.553-5.219Z" transform="translate(-576.418 -2764.668)" fill="#C0C0C0"/>
</svg>